HIERARCHY
ROOT pelvis
{
	OFFSET 0.000000 0.000000 0.000000
	CHANNELS 6 Xposition Yposition Zposition Zrotation Xrotation Yrotation
	JOINT lfemur
	{
		OFFSET 11.446000 0.000000 0.000000
		CHANNELS 3 Zrotation Xrotation Yrotation
		JOINT ltibia
		{
			OFFSET 0.000000 -42.030400 0.000000
			CHANNELS 3 Zrotation Xrotation Yrotation
			JOINT lfoot
			{
				OFFSET 0.000000 -39.930200 0.000000
				CHANNELS 3 Zrotation Xrotation Yrotation
				JOINT ltoes
				{
					OFFSET 0.000000 0.000000 11.775800
					CHANNELS 3 Zrotation Xrotation Yrotation
					End Site
					{
					    OFFSET 0.000000 0.000000 5.000000
					}
				}
			}
		}
	}
	JOINT rfemur
	{
		OFFSET -11.446000 0.000000 0.000000
		CHANNELS 3 Zrotation Xrotation Yrotation
		JOINT rtibia
		{
			OFFSET 0.000000 -42.030400 0.000000
			CHANNELS 3 Zrotation Xrotation Yrotation
			JOINT rfoot
			{
				OFFSET 0.000000 -39.930200 0.000000
				CHANNELS 3 Zrotation Xrotation Yrotation
				JOINT rtoes
				{
					OFFSET 0.000000 0.000000 11.775800
					CHANNELS 3 Zrotation Xrotation Yrotation
					End Site
					{
					    OFFSET 0.000000 0.000000 5.000000
					}
				}
			}
		}
	}
	JOINT thorax
	{
		OFFSET 0.000000 11.255600 -5.000000
		CHANNELS 3 Zrotation Xrotation Yrotation
		JOINT head
		{
			OFFSET 0.000000 43.799300 0.000000
			CHANNELS 3 Zrotation Xrotation Yrotation
			End Site
			{
			    OFFSET 0.000000 5.000000 0.000000
			}
		}
		JOINT lclavicle
		{
			OFFSET 0.000000 39.863000 0.000000
			CHANNELS 3 Zrotation Xrotation Yrotation
			JOINT lhumerus
			{
				OFFSET 17.380600 4.958300 0.000000
				CHANNELS 3 Zrotation Xrotation Yrotation
				JOINT lradius
				{
					OFFSET 0.000000 -27.561300 0.000000
					CHANNELS 3 Zrotation Xrotation Yrotation
					JOINT lhand
					{
						OFFSET 0.000000 -26.933000 0.000000
						CHANNELS 3 Zrotation Xrotation Yrotation
						End Site
						{
						    OFFSET 0.000000 -5.000000 0.000000
						}
					}
				}
			}
		}
		JOINT rclavicle
		{
			OFFSET 0.000000 39.863000 0.000000
			CHANNELS 3 Zrotation Xrotation Yrotation
			JOINT rhumerus
			{
				OFFSET -17.380600 4.958300 0.000000
				CHANNELS 3 Zrotation Xrotation Yrotation
				JOINT rradius
				{
					OFFSET 0.000000 -27.561300 0.000000
					CHANNELS 3 Zrotation Xrotation Yrotation
					JOINT rhand
					{
						OFFSET 0.000000 -26.933000 0.000000
						CHANNELS 3 Zrotation Xrotation Yrotation
						End Site
						{
						    OFFSET 0.000000 -5.000000 0.000000
						}
					}
				}
			}
		}
	}
}
MOTION
Frames:	19
Frame Time:	0.0333333
162.407200 7.316900 -4.867500 -73.440507 -14.551389 -80.198103 -8.436134 -22.090733 -5.663880 0.000000 17.062964 -0.000000 0.000000 30.339309 3.974670 -0.000000 -1.602229 0.000000 -3.098954 -23.065870 -6.522029 -0.000000 12.483066 0.000000 0.000000 32.328262 -1.193358 -0.000000 -29.581211 -0.000000 -1.948666 29.492643 -3.309051 -25.454017 40.081142 26.205261 -15.663314 -0.000000 3.604294 33.713033 -6.035746 19.875395 0.000001 -28.998907 -60.471032 15.615705 0.822388 0.000000 19.107734 -0.000000 9.909963 -25.787552 22.626558 -4.251417 -0.000002 -61.757019 17.278040 -1.787213 -2.830776 0.000000 
162.409000 7.302100 -4.767200 -72.920864 -14.917952 -80.117171 -8.836732 -22.879915 -6.289970 -0.000000 17.384578 0.000000 -0.000000 30.801608 3.758498 -0.000000 -1.618557 -0.000000 -4.221491 -23.838416 -4.528310 0.000000 13.331530 -0.000000 -0.000000 31.416324 -0.041871 -0.000000 -29.576026 -0.000000 -2.007288 29.681933 -2.712299 -27.378543 42.840622 28.198871 -14.759799 0.000000 2.485783 36.333483 -9.165683 9.557398 -0.000001 -21.080967 -56.540287 14.025480 1.678533 -0.000000 19.011966 -0.000000 11.225082 -26.855669 19.728954 -4.873004 -0.000002 -59.876486 17.599050 -2.162597 -2.700291 -0.000000 
162.354200 7.297500 -4.630300 -72.501073 -15.100300 -80.098433 -9.082121 -23.860446 -6.576112 -0.000000 18.197824 0.000000 0.000000 31.072053 3.568216 0.000000 -1.608278 -0.000000 -5.076965 -24.843459 -4.128129 -0.000000 14.358512 -0.000000 0.000000 30.737781 0.116352 -0.000000 -29.577556 0.000000 -2.029856 30.391040 -2.579119 -28.801458 44.388338 30.300284 -13.565786 -0.000000 1.795429 36.328198 -11.780394 6.468638 0.000000 -15.897513 -56.015059 13.806097 2.299281 0.000000 18.496938 0.000000 11.753248 -27.862883 16.107810 -4.602473 -0.000001 -59.555074 17.181536 -2.696655 -2.522391 0.000000 
162.227200 7.372200 -4.487900 -71.426606 -15.055126 -79.944864 -9.272725 -25.147803 -7.920338 -0.000000 18.373851 -0.000000 0.000000 31.528242 3.015659 -0.000000 -1.615404 -0.000000 -5.792248 -26.645544 -3.646703 -0.000000 15.831567 0.000000 0.000000 30.061275 -0.138869 -0.000000 -29.575531 -0.000000 -1.777590 30.782824 -2.507560 -30.130663 45.499302 32.147303 -12.563663 0.000000 0.991355 35.536127 -13.191822 7.206088 -0.000000 -13.468217 -57.232836 15.048348 2.475767 0.000000 17.864207 -0.000000 12.099631 -28.776858 12.598727 -4.829838 -0.000001 -60.769512 17.460976 -3.214116 -2.347516 -0.000000 
162.128800 7.418100 -4.329400 -70.429651 -15.025535 -79.850300 -9.520869 -26.165666 -8.834767 -0.000000 18.035709 0.000000 0.000000 31.863193 2.373055 0.000000 -1.623943 0.000000 -6.488325 -28.458646 -3.608590 -0.000000 17.313787 0.000000 -0.000000 30.062239 -0.107555 -0.000000 -29.572898 0.000000 -1.515228 31.553580 -2.721575 -31.052964 45.795808 33.657388 -12.037165 -0.000000 1.067468 34.747639 -13.650332 8.774846 -0.000000 -13.971022 -59.269816 17.555641 1.738291 0.000000 16.795031 0.000000 11.900553 -29.476983 8.529696 -4.048199 -0.000002 -62.373186 17.318760 -3.414559 -2.282557 0.000000 
161.944300 7.440300 -4.268000 -69.110580 -14.977953 -79.722768 -9.731951 -27.315151 -9.756276 -0.000000 17.554831 0.000000 -0.000000 31.234205 1.883582 0.000000 -1.595982 -0.000000 -6.989514 -30.563769 -3.389415 -0.000000 18.603457 -0.000000 0.000000 30.001906 -0.010382 -0.000000 -29.574514 -0.000000 -1.539922 31.950118 -2.575487 -31.433423 46.326755 34.614908 -12.412612 0.000000 1.270168 34.934918 -13.266701 7.840086 0.000000 -15.589652 -59.493325 21.632144 1.238726 -0.000000 16.139048 0.000000 11.917828 -30.368854 5.246737 -3.631425 0.000002 -64.541251 17.278297 -3.493239 -2.259560 -0.000000 
161.757200 7.471000 -4.301500 -67.609610 -14.868338 -79.525370 -9.886913 -28.607242 -10.082031 -0.000000 17.020543 -0.000000 0.000000 31.267472 1.720796 0.000000 -1.609754 -0.000000 -7.157535 -32.578568 -2.404929 0.000000 19.357817 -0.000000 -0.000000 30.068167 -0.037130 -0.000000 -29.575057 0.000000 -1.735129 32.063230 -2.247464 -31.199897 46.891493 34.558221 -12.940040 0.000000 1.008088 35.791988 -11.673036 5.161346 0.000001 -17.669676 -57.513406 24.271508 0.965108 -0.000000 15.614432 -0.000000 12.140351 -31.174251 2.532943 -3.310902 0.000000 -66.845758 16.879390 -3.256657 -2.341778 0.000000 
161.303700 7.102400 -4.268100 -70.997044 -15.433358 -79.940685 -10.059841 -26.163142 -9.674650 0.000000 18.085832 -0.000000 -0.000000 30.011194 2.254876 -0.000000 -1.597350 0.000000 -7.262751 -30.210075 -2.778180 0.000000 20.628654 -0.000000 -0.000000 28.531445 0.318227 -0.000000 -29.573530 -0.000000 -1.562447 36.595509 -3.239449 -31.411196 47.226681 35.487967 -13.119424 0.000000 1.394965 36.335512 -9.452693 4.121230 0.000001 -18.592911 -58.321901 26.094070 0.598587 -0.000000 14.609219 0.000000 12.442522 -31.136542 -0.280942 -1.984950 0.000003 -68.744323 17.034278 -2.995994 -2.426361 0.000000 
161.188200 7.062600 -4.418000 -70.139738 -15.017525 -80.266328 -9.621203 -26.727057 -9.448131 -0.000000 17.282735 -0.000000 0.000000 29.816936 2.455646 0.000000 -1.607029 -0.000000 -6.485054 -32.395308 -4.008355 -0.000000 21.960635 0.000000 -0.000000 30.498666 -0.732990 -0.000000 -29.585066 -0.000000 -1.768827 37.263516 -2.928761 -31.256468 47.471910 35.810459 -13.799346 0.000000 1.017158 37.364583 -6.517371 2.205206 -0.000001 -18.743034 -57.568959 27.610598 0.468967 0.000000 13.838143 -0.000000 12.605295 -31.503835 -3.378073 -0.673150 -0.000002 -70.946299 16.724408 -1.835604 -2.819404 -0.000000 
161.111700 7.071600 -4.420200 -68.675604 -15.409851 -80.412560 -10.266821 -27.873561 -8.242146 0.000000 16.733929 -0.000000 -0.000000 30.987624 1.943584 -0.000000 -1.667149 -0.000000 -6.624654 -33.839656 -3.372341 -0.000000 21.925376 0.000000 0.000000 29.537284 -0.365312 -0.000000 -29.581801 -0.000000 -2.879012 37.825858 -2.671393 -30.717640 47.373006 35.808309 -14.068196 -0.000000 0.820756 37.588462 -3.347850 0.478099 -0.000001 -17.817754 -57.833588 29.288439 0.537127 -0.000000 12.607435 0.000000 12.315700 -31.288338 -7.182457 0.909780 -0.000001 -73.315615 16.902489 -0.165922 -3.386630 -0.000000 
160.937700 7.087100 -4.502300 -67.423630 -15.223433 -80.297870 -10.539189 -28.573900 -8.115190 0.000000 16.094103 -0.000000 -0.000000 30.566300 1.986717 0.000000 -1.667184 -0.000000 -6.054160 -34.560956 -2.053839 -0.000000 21.217625 0.000000 -0.000000 28.241103 -0.481540 -0.000000 -29.574660 -0.000000 -3.236093 38.773406 -2.883481 -30.049654 46.973418 35.597221 -14.139398 -0.000000 1.436127 37.171172 -0.582247 2.801719 -0.000000 -23.316250 -58.058502 36.589035 -0.065499 -0.000000 12.149134 -0.000000 12.328522 -31.951881 -10.798903 2.350988 -0.000003 -76.818456 16.722934 1.135881 -3.831045 0.000000 
160.835600 7.001700 -4.460600 -66.103023 -15.005558 -80.449020 -10.834006 -29.139816 -8.396902 -0.000000 15.492913 -0.000000 -0.000000 30.372274 2.157966 -0.000000 -1.644425 0.000000 -5.647996 -36.117689 -2.942892 -0.000000 21.551958 -0.000000 -0.000000 28.989225 -0.831728 -0.000000 -29.583680 -0.000000 -3.411142 39.019800 -2.381999 -29.859056 47.328752 35.219112 -14.001339 -0.000000 1.726790 36.847991 0.344071 2.370054 -0.000000 -25.224185 -56.742285 36.325828 -0.739567 -0.000000 11.500755 0.000000 12.210495 -32.543503 -13.887979 3.310710 0.000004 -80.522184 16.425528 1.407662 -3.927251 -0.000000 
160.741700 7.018600 -4.412000 -64.446525 -14.630438 -80.190092 -11.243818 -30.024583 -8.699141 0.000000 15.589210 -0.000000 -0.000000 30.576601 1.836284 -0.000000 -1.665940 -0.000000 -5.510153 -37.696017 -4.535062 -0.000000 21.948860 -0.000000 -0.000000 29.738652 -1.283933 -0.000000 -29.592057 0.000000 -3.219956 38.830610 -2.110209 -29.363434 47.836631 34.045538 -13.566303 0.000000 2.327792 36.488478 -0.347705 1.656468 0.000002 -25.129842 -56.144092 36.029752 -0.848538 -0.000000 10.820700 -0.000000 12.175119 -33.050938 -16.988153 4.028547 -0.000017 -84.371489 16.802963 0.565650 -3.644508 0.000000 
160.594700 7.032300 -4.342400 -62.912574 -14.616864 -80.058853 -11.820745 -30.545297 -9.366792 -0.000000 14.860220 0.000000 0.000000 32.715010 1.125880 -0.000000 -1.626792 -0.000000 -5.587200 -38.521102 -4.300599 -0.000000 21.795188 -0.000000 0.000000 29.447803 -1.339107 -0.000000 -29.591732 0.000000 -3.530739 38.725821 -1.769164 -29.051917 48.425675 33.194824 -13.509234 0.000000 2.045318 36.460689 -0.349372 1.661518 -0.000000 -24.753739 -55.975461 37.358047 -0.388831 -0.000000 10.072112 0.000000 12.086739 -33.347139 -20.165844 4.685376 -0.000013 -88.125419 15.862678 0.987304 -3.789872 0.000000 
160.425800 6.996800 -4.295900 -61.631164 -14.449040 -79.665201 -12.100495 -31.606264 -9.843805 0.000000 14.128178 -0.000000 -0.000000 32.960293 -0.647126 -0.000000 -1.672287 0.000000 -5.734440 -39.072715 -4.162577 -0.000000 21.905309 -0.000000 0.000000 29.166966 -1.605851 -0.000000 -29.589936 -0.000000 -3.511056 38.803630 -1.831735 -28.656618 48.838880 32.252985 -13.224133 -0.000000 1.777181 36.106623 -0.214573 1.999616 0.000001 -24.404614 -56.603962 38.677645 -0.177050 -0.000000 9.326506 -0.000000 11.800591 -33.447599 -23.430075 5.620746 180.000011 -88.063133 -164.511948 0.771497 -3.717724 -0.000000 
160.260400 7.042400 -4.219300 -60.358102 -14.447682 -79.406512 -12.644624 -33.123036 -10.363108 0.000000 14.920012 -0.000000 -0.000000 32.299488 -1.024329 -0.000000 -1.683191 -0.000000 -5.987028 -39.577826 -4.221920 -0.000000 22.262637 0.000000 0.000000 29.009836 -2.031452 -0.000000 -29.592159 0.000000 -3.734538 38.933236 -1.475594 -27.896456 49.181950 31.220122 -13.034468 0.000000 1.843798 35.487478 -0.539775 2.759593 -0.000001 -23.960844 -57.853003 40.340364 0.186426 0.000000 9.000953 -0.000000 11.584398 -34.099916 -26.024801 6.072662 -180.000031 -83.516690 -164.718270 1.289428 -3.895972 0.000000 
159.997600 7.117300 -4.095900 -59.085138 -14.976700 -78.982518 -13.728899 -34.390919 -10.658557 0.000000 15.393038 -0.000000 0.000000 33.226429 -0.610211 -0.000000 -1.682568 -0.000000 -7.067731 -39.759718 -4.016376 -0.000000 22.620061 0.000000 -0.000000 26.992101 -1.467308 -0.000000 -29.582874 -0.000000 -4.397927 39.324781 -1.249346 -26.471117 49.162021 29.749814 -12.840047 -0.000000 2.150694 35.130760 -1.105696 3.243364 -0.000002 -23.609791 -58.935833 41.760946 0.312224 0.000000 8.354949 -0.000000 11.427547 -34.818719 -28.618518 6.400280 -180.000035 -79.032321 -164.504364 2.159946 -4.194738 -0.000000 
159.873500 7.153100 -4.040900 -57.545159 -14.868682 -78.825634 -13.901212 -36.105123 -10.002083 -0.000000 15.851764 -0.000000 0.000000 34.007707 -0.537732 -0.000000 -1.678100 -0.000000 -7.510720 -41.072814 -6.297400 -0.000000 23.589059 -0.000000 -0.000000 27.643158 -1.669995 0.000000 -29.588167 -0.000000 -4.539204 39.160974 -0.640992 -25.156408 49.244607 28.461275 -12.886141 -0.000000 2.139781 35.160731 -1.076105 2.796674 0.000001 -23.919590 -57.581287 42.563440 0.269390 0.000000 7.879026 -0.000000 11.579332 -35.907441 -30.800279 6.188188 -180.000035 -74.781963 -163.239232 2.518229 -4.320310 -0.000000 
159.679800 7.194600 -3.997900 -55.910618 -14.793565 -78.319264 -14.242484 -37.357931 -10.125990 -0.000000 15.430618 -0.000000 -0.000000 33.589466 -0.420350 -0.000000 -1.663603 -0.000000 -8.327196 -42.050895 -8.470501 -0.000000 23.847759 -0.000000 0.000000 27.801892 -2.077849 -0.000000 -29.589390 0.000000 -4.514863 39.174203 -0.592503 -23.837234 49.137634 27.157078 -12.942760 -0.000000 1.964697 35.401023 -0.915608 2.119771 0.000000 -24.406219 -56.602254 43.232511 0.370508 -0.000000 7.424126 -0.000000 11.998106 -37.252088 -33.271049 5.541997 -180.000036 -70.792510 -163.748566 2.639794 -4.364164 -0.000000 
